<svg width="512" height="512" viewBox="0 0 512 512" xmlns="http://www.w3.org/2000/svg">
  <defs>
    <linearGradient id="bg" x1="0" y1="0" x2="1" y2="1">
      <stop offset="0%" stop-color="#f97316"/>
      <stop offset="100%" stop-color="#ea580c"/>
    </linearGradient>
  </defs>
  <rect width="512" height="512" rx="110" fill="url(#bg)"/>

  <!-- Pixel art K — 10×10 grid, pixel=28px gap=2px step=30, offset=(106,106) -->
  <!-- ~21% margin on all sides, K fills ~58% of canvas -->
  <!-- col/row x: 106 136 166 196 226 256 286 316 346 376 -->

  <!-- Row 0: cols 0,1,7,8 -->
  <rect x="106" y="106" width="28" height="28" fill="white"/>
  <rect x="136" y="106" width="28" height="28" fill="white"/>
  <rect x="316" y="106" width="28" height="28" fill="white"/>
  <rect x="346" y="106" width="28" height="28" fill="white"/>
  <!-- Row 1: cols 0,1,6,7 -->
  <rect x="106" y="136" width="28" height="28" fill="white"/>
  <rect x="136" y="136" width="28" height="28" fill="white"/>
  <rect x="286" y="136" width="28" height="28" fill="white"/>
  <rect x="316" y="136" width="28" height="28" fill="white"/>
  <!-- Row 2: cols 0,1,5,6 -->
  <rect x="106" y="166" width="28" height="28" fill="white"/>
  <rect x="136" y="166" width="28" height="28" fill="white"/>
  <rect x="256" y="166" width="28" height="28" fill="white"/>
  <rect x="286" y="166" width="28" height="28" fill="white"/>
  <!-- Row 3: cols 0,1,4,5 -->
  <rect x="106" y="196" width="28" height="28" fill="white"/>
  <rect x="136" y="196" width="28" height="28" fill="white"/>
  <rect x="226" y="196" width="28" height="28" fill="white"/>
  <rect x="256" y="196" width="28" height="28" fill="white"/>
  <!-- Row 4: cols 0,1,3,4 -->
  <rect x="106" y="226" width="28" height="28" fill="white"/>
  <rect x="136" y="226" width="28" height="28" fill="white"/>
  <rect x="196" y="226" width="28" height="28" fill="white"/>
  <rect x="226" y="226" width="28" height="28" fill="white"/>
  <!-- Row 5: cols 0,1,3,4 -->
  <rect x="106" y="256" width="28" height="28" fill="white"/>
  <rect x="136" y="256" width="28" height="28" fill="white"/>
  <rect x="196" y="256" width="28" height="28" fill="white"/>
  <rect x="226" y="256" width="28" height="28" fill="white"/>
  <!-- Row 6: cols 0,1,4,5 -->
  <rect x="106" y="286" width="28" height="28" fill="white"/>
  <rect x="136" y="286" width="28" height="28" fill="white"/>
  <rect x="226" y="286" width="28" height="28" fill="white"/>
  <rect x="256" y="286" width="28" height="28" fill="white"/>
  <!-- Row 7: cols 0,1,5,6 -->
  <rect x="106" y="316" width="28" height="28" fill="white"/>
  <rect x="136" y="316" width="28" height="28" fill="white"/>
  <rect x="256" y="316" width="28" height="28" fill="white"/>
  <rect x="286" y="316" width="28" height="28" fill="white"/>
  <!-- Row 8: cols 0,1,6,7 -->
  <rect x="106" y="346" width="28" height="28" fill="white"/>
  <rect x="136" y="346" width="28" height="28" fill="white"/>
  <rect x="286" y="346" width="28" height="28" fill="white"/>
  <rect x="316" y="346" width="28" height="28" fill="white"/>
  <!-- Row 9: cols 0,1,7,8 -->
  <rect x="106" y="376" width="28" height="28" fill="white"/>
  <rect x="136" y="376" width="28" height="28" fill="white"/>
  <rect x="316" y="376" width="28" height="28" fill="white"/>
  <rect x="346" y="376" width="28" height="28" fill="white"/>
</svg>
